<svg width="132" height="30" viewBox="0 0 132 30" fill="none" xmlns="http://www.w3.org/2000/svg">
<path d="M4.97162 29.4222L0.0110358 29.5105L0 7.19372L4.85299 7.15783L4.94311 8.16039C7.47215 6.5827 13.1409 6.67932 15.6653 10.0224C17.8945 12.9735 18.1318 16.8853 16.6558 20.2008C15.7039 22.3403 13.8168 23.82 11.9104 24.2506C10.3461 24.7568 6.20763 24.5267 5.00749 23.163L4.96886 29.4222H4.97162ZM12.5035 15.7452C12.4511 13.3655 10.7461 11.7533 8.59688 11.7809C6.52767 11.8058 5.00197 13.4428 4.89437 15.6154C4.77298 18.0282 6.30695 19.9192 8.60791 19.9441C10.9089 19.9689 12.5587 18.2905 12.5035 15.7452Z" fill="#1F1F1F"/>
<path fill-rule="evenodd" clip-rule="evenodd" d="M30.388 24.2164H35.5086V8.14205H30.388V24.2164Z" fill="#1F1F1F"/>
<path fill-rule="evenodd" clip-rule="evenodd" d="M32.9485 0.489258C31.2205 0.489258 30.0036 1.83414 30.0036 3.40309C30.0036 5.03622 31.2205 6.25274 32.9485 6.25274C34.6761 6.25274 35.9245 5.03622 35.9245 3.40309C35.9245 1.83414 34.6761 0.489258 32.9485 0.489258Z" fill="#1F1F1F"/>
<path fill-rule="evenodd" clip-rule="evenodd" d="M58.3032 8.11076L55.2316 13.1052L52.1271 8.11076H46.2706L51.5514 16.4359L46.2706 24.2164H52.1271L55.2316 19.5742L58.3032 24.2164H64.192L58.8794 16.4359L64.192 8.11076H58.3032Z" fill="#1F1F1F"/>
<path fill-rule="evenodd" clip-rule="evenodd" d="M79.6584 13.8745C80.1382 12.2411 81.6094 11.3446 83.0501 11.3446C84.5222 11.3446 85.8021 12.1454 86.2829 13.8745H79.6584ZM83.0501 7.18182C78.3776 7.18182 74.538 10.6397 74.538 15.6997C74.538 20.7901 78.3776 24.2164 83.0181 24.2164C86.699 24.2164 89.6106 22.584 90.9864 19.1896L86.4422 18.2616C85.5777 19.83 84.2019 20.1192 83.0181 20.1192C81.2896 20.1192 79.9778 18.9335 79.5621 17.0126H91.3386V15.6997C91.2435 10.4479 87.595 7.18182 83.0501 7.18182Z" fill="#1F1F1F"/>
<path fill-rule="evenodd" clip-rule="evenodd" d="M101.685 24.2164H106.805V1.16183H101.685V24.2164Z" fill="#1F1F1F"/>
<path fill-rule="evenodd" clip-rule="evenodd" d="M123.648 20.1507L131.712 11.5047V8.14205H117.343V12.2084H125.215L117.151 20.9189V24.2164H132V20.1507H123.648Z" fill="#1F1F1F"/>
</svg>
